<svg width="20" height="20" viewBox="0 0 20 20" fill="none" xmlns="http://www.w3.org/2000/svg">
<path d="M7.50073 5.36606H16.6712" stroke="#171E29" stroke-width="1.25" stroke-linecap="round" stroke-linejoin="round"/>
<path d="M16.6712 10.0028H7.50073" stroke="#171E29" stroke-width="1.25" stroke-linecap="round" stroke-linejoin="round"/>
<path d="M7.50073 14.6375H16.6712" stroke="#171E29" stroke-width="1.25" stroke-linecap="round" stroke-linejoin="round"/>
<path d="M3.74765 4.94922C3.51744 4.94922 3.33081 5.13584 3.33081 5.36606C3.33081 5.59627 3.51744 5.7829 3.74765 5.7829C3.97787 5.7829 4.16449 5.59627 4.16449 5.36606C4.16449 5.13584 3.97787 4.94922 3.74765 4.94922" stroke="#171E29" stroke-width="1.25" stroke-linecap="round" stroke-linejoin="round"/>
<path d="M3.74765 9.58594C3.51744 9.58594 3.33081 9.77256 3.33081 10.0028C3.33081 10.233 3.51744 10.4196 3.74765 10.4196C3.97787 10.4196 4.16449 10.233 4.16449 10.0028C4.16449 9.77256 3.97787 9.58594 3.74765 9.58594" stroke="#171E29" stroke-width="1.25" stroke-linecap="round" stroke-linejoin="round"/>
<path d="M3.74765 14.2207C3.51744 14.2207 3.33081 14.4073 3.33081 14.6375C3.33081 14.8678 3.51744 15.0544 3.74765 15.0544C3.97787 15.0544 4.16449 14.8678 4.16449 14.6375C4.16449 14.4073 3.97787 14.2207 3.74765 14.2207" stroke="#171E29" stroke-width="1.25" stroke-linecap="round" stroke-linejoin="round"/>
</svg>
