<svg width="20" height="20" viewBox="0 0 20 20" fill="none" xmlns="http://www.w3.org/2000/svg">
<path d="M17.5033 9.99922C17.5033 14.1431 14.1441 17.5023 10.0002 17.5023C5.85633 17.5023 2.49707 14.1431 2.49707 9.99922C2.49707 5.85536 5.85633 2.49609 10.0002 2.49609" stroke="#171E29" stroke-width="1.25" stroke-linecap="round" stroke-linejoin="round"/>
<path fill-rule="evenodd" clip-rule="evenodd" d="M15.2872 1.98856C15.3971 1.7873 15.6081 1.66211 15.8374 1.66211C16.0667 1.66211 16.2777 1.7873 16.3876 1.98856L16.8737 2.87643C16.9311 2.98222 17.018 3.06909 17.1238 3.12653L18.0108 3.61174C18.2124 3.72176 18.3379 3.93311 18.3379 4.1628C18.3379 4.39249 18.2124 4.60384 18.0108 4.71386L17.1238 5.1999C17.0178 5.25711 16.9309 5.34404 16.8737 5.45L16.3876 6.33704C16.2777 6.53829 16.0667 6.66349 15.8374 6.66349C15.6081 6.66349 15.3971 6.53829 15.2872 6.33704L14.8011 5.44917C14.7439 5.34321 14.657 5.25628 14.551 5.19906L13.664 4.71386C13.4624 4.60384 13.3369 4.39249 13.3369 4.1628C13.3369 3.93311 13.4624 3.72176 13.664 3.61174L14.551 3.12653C14.6568 3.06909 14.7437 2.98222 14.8011 2.87643L15.2872 1.98856Z" stroke="#171E29" stroke-width="1.25" stroke-linecap="round" stroke-linejoin="round"/>
<path d="M11.042 8.33594H13.1262C13.3564 8.33594 13.543 8.52256 13.543 8.75278V12.9212C13.543 13.1514 13.3564 13.338 13.1262 13.338H11.042" stroke="#171E29" stroke-width="1.25" stroke-linecap="round" stroke-linejoin="round"/>
<path d="M8.54303 13.3367H6.45883C6.22862 13.3367 6.04199 13.15 6.04199 12.9198V10.4188C6.04199 10.1886 6.22862 10.002 6.45883 10.002H8.54303" stroke="#171E29" stroke-width="1.25" stroke-linecap="round" stroke-linejoin="round"/>
<path fill-rule="evenodd" clip-rule="evenodd" d="M11.043 13.3312H8.54199V6.24497C8.54199 6.01475 8.72862 5.82812 8.95883 5.82812H10.6262C10.8564 5.82812 11.043 6.01475 11.043 6.24497V13.3312Z" stroke="#171E29" stroke-width="1.25" stroke-linecap="round" stroke-linejoin="round"/>
</svg>
