<svg width="14" height="10" viewBox="0 0 14 10" fill="none" xmlns="http://www.w3.org/2000/svg">
<path d="M12.7074 3.65819C13.4322 4.42073 13.4322 5.57927 12.7074 6.34181C11.485 7.62792 9.38567 9.375 7.00098 9.375C4.61628 9.375 2.51691 7.62792 1.29454 6.34181C0.569788 5.57927 0.569788 4.42073 1.29454 3.65819C2.51691 2.37208 4.61628 0.625 7.00098 0.625C9.38567 0.625 11.485 2.37208 12.7074 3.65819Z" stroke="#645BEF" stroke-width="1.125" stroke-linecap="round" stroke-linejoin="round"/>
<path d="M8.87598 5C8.87598 6.03553 8.03651 6.875 7.00098 6.875C5.96544 6.875 5.12598 6.03553 5.12598 5C5.12598 3.96447 5.96544 3.125 7.00098 3.125C8.03651 3.125 8.87598 3.96447 8.87598 5Z" stroke="#645BEF" stroke-width="1.125" stroke-linecap="round" stroke-linejoin="round"/>
</svg>
