<svg width="18" height="18" viewBox="0 0 18 18" fill="none" xmlns="http://www.w3.org/2000/svg">
<path d="M9 9.75781C9.41421 9.75781 9.75 9.42203 9.75 9.00781C9.75 8.5936 9.41421 8.25781 9 8.25781C8.58579 8.25781 8.25 8.5936 8.25 9.00781C8.25 9.42203 8.58579 9.75781 9 9.75781Z" stroke="#D0D5DD" stroke-width="1.5" stroke-linecap="round" stroke-linejoin="round"/>
<path d="M14.25 9.75781C14.6642 9.75781 15 9.42203 15 9.00781C15 8.5936 14.6642 8.25781 14.25 8.25781C13.8358 8.25781 13.5 8.5936 13.5 9.00781C13.5 9.42203 13.8358 9.75781 14.25 9.75781Z" stroke="#D0D5DD" stroke-width="1.5" stroke-linecap="round" stroke-linejoin="round"/>
<path d="M3.75 9.75781C4.16421 9.75781 4.5 9.42203 4.5 9.00781C4.5 8.5936 4.16421 8.25781 3.75 8.25781C3.33579 8.25781 3 8.5936 3 9.00781C3 9.42203 3.33579 9.75781 3.75 9.75781Z" stroke="#D0D5DD" stroke-width="1.5" stroke-linecap="round" stroke-linejoin="round"/>
</svg>
