<svg width="18" height="18" viewBox="0 0 18 18" fill="none" xmlns="http://www.w3.org/2000/svg">
<path d="M9 9.75195C9.41421 9.75195 9.75 9.41617 9.75 9.00195C9.75 8.58774 9.41421 8.25195 9 8.25195C8.58579 8.25195 8.25 8.58774 8.25 9.00195C8.25 9.41617 8.58579 9.75195 9 9.75195Z" stroke="#171E29" stroke-width="1.5" stroke-linecap="round" stroke-linejoin="round"/>
<path d="M14.25 9.75195C14.6642 9.75195 15 9.41617 15 9.00195C15 8.58774 14.6642 8.25195 14.25 8.25195C13.8358 8.25195 13.5 8.58774 13.5 9.00195C13.5 9.41617 13.8358 9.75195 14.25 9.75195Z" stroke="#171E29" stroke-width="1.5" stroke-linecap="round" stroke-linejoin="round"/>
<path d="M3.75 9.75195C4.16421 9.75195 4.5 9.41617 4.5 9.00195C4.5 8.58774 4.16421 8.25195 3.75 8.25195C3.33579 8.25195 3 8.58774 3 9.00195C3 9.41617 3.33579 9.75195 3.75 9.75195Z" stroke="#171E29" stroke-width="1.5" stroke-linecap="round" stroke-linejoin="round"/>
</svg>
