<svg width="16" height="18" viewBox="0 0 16 18" fill="none" xmlns="http://www.w3.org/2000/svg">
<path d="M14.875 7.47439V5.56467C14.875 3.87713 13.507 2.50911 11.8194 2.50911H4.18056C2.49302 2.50911 1.125 3.87713 1.125 5.56467V13.5855C1.125 15.273 2.49302 16.6411 4.18056 16.6411H5.70833M4.94444 1.36328V3.65495M11.0556 1.36328V3.65495M8 16.6411L10.3381 15.9745C10.4634 15.9388 10.5776 15.8716 10.6698 15.7795L14.5005 11.9487C14.9998 11.4494 14.9998 10.6399 14.5005 10.1405C14.0012 9.64123 13.1916 9.64123 12.6923 10.1405L8.86158 13.9713C8.76941 14.0635 8.70228 14.1776 8.66655 14.303L8 16.6411Z" stroke="#171E29" stroke-width="1.375" stroke-linecap="round"/>
</svg>
