<svg width="20" height="20" viewBox="0 0 20 20" fill="none" xmlns="http://www.w3.org/2000/svg">
<path d="M5.83301 6.66667V3.33333C5.83301 2.87333 6.20634 2.5 6.66634 2.5H13.333C13.793 2.5 14.1663 2.87333 14.1663 3.33333V6.66667" stroke="#171E29" stroke-width="1.5" stroke-linecap="round" stroke-linejoin="round"/>
<path d="M5.83333 14.166H4.16667C3.24583 14.166 2.5 13.4202 2.5 12.4993V8.33268C2.5 7.41185 3.24583 6.66602 4.16667 6.66602H15.8333C16.7542 6.66602 17.5 7.41185 17.5 8.33268V12.4993C17.5 13.4202 16.7542 14.166 15.8333 14.166H14.1667" stroke="#171E29" stroke-width="1.5" stroke-linecap="round" stroke-linejoin="round"/>
<path fill-rule="evenodd" clip-rule="evenodd" d="M5.83301 11.5H14.1663V16.6667C14.1663 17.1267 13.793 17.5 13.333 17.5H6.66634C6.20634 17.5 5.83301 17.1267 5.83301 16.6667V11.5Z" stroke="#171E29" stroke-width="1.5" stroke-linecap="round" stroke-linejoin="round"/>
<path d="M5.83301 9.16667H6.66634" stroke="#171E29" stroke-width="1.5" stroke-linecap="round" stroke-linejoin="round"/>
</svg>
