<svg width="25" height="24" viewBox="0 0 25 24" fill="none" xmlns="http://www.w3.org/2000/svg">
<path d="M21.5 5.98047C18.17 5.65047 14.82 5.48047 11.48 5.48047C9.5 5.48047 7.52 5.58047 5.54 5.78047L3.5 5.98047" stroke="#675ef6" stroke-width="1.5" stroke-linecap="round" stroke-linejoin="round"/>
<path d="M9 4.97L9.22 3.66C9.38 2.71 9.5 2 11.19 2H13.81C15.5 2 15.63 2.75 15.78 3.67L16 4.97" stroke="#675ef6" stroke-width="1.5" stroke-linecap="round" stroke-linejoin="round"/>
<path d="M19.3484 9.14062L18.6984 19.2106C18.5884 20.7806 18.4984 22.0006 15.7084 22.0006H9.28844C6.49844 22.0006 6.40844 20.7806 6.29844 19.2106L5.64844 9.14062" stroke="#675ef6" stroke-width="1.5" stroke-linecap="round" stroke-linejoin="round"/>
<path d="M10.8281 16.5H14.1581" stroke="#675ef6" stroke-width="1.5" stroke-linecap="round" stroke-linejoin="round"/>
<path d="M10 12.5H15" stroke="#675ef6" stroke-width="1.5" stroke-linecap="round" stroke-linejoin="round"/>
</svg>
